<svg viewBox="0 0 330 200" xmlns="http://www.w3.org/2000/svg"><g><g><g><g><g><line x1="51.5625" y1="177" x2="46.5625" y2="177" style="visibility: inherit;" fill="rgb(0, 0, 0)" stroke="rgb(204, 204, 204)" stroke-width="1px"></line><line x1="51.5625" y1="159.3" x2="46.5625" y2="159.3" style="visibility: inherit;" fill="rgb(0, 0, 0)" stroke="rgb(204, 204, 204)" stroke-width="1px"></line><line x1="51.5625" y1="141.6" x2="46.5625" y2="141.6" style="visibility: inherit;" fill="rgb(0, 0, 0)" stroke="rgb(204, 204, 204)" stroke-width="1px"></line><line x1="51.5625" y1="123.89999999999999" x2="46.5625" y2="123.89999999999999" style="visibility: inherit;" fill="rgb(0, 0, 0)" stroke="rgb(204, 204, 204)" stroke-width="1px"></line><line x1="51.5625" y1="106.2" x2="46.5625" y2="106.2" style="visibility: inherit;" fill="rgb(0, 0, 0)" stroke="rgb(204, 204, 204)" stroke-width="1px"></line><line x1="51.5625" y1="88.5" x2="46.5625" y2="88.5" style="visibility: inherit;" fill="rgb(0, 0, 0)" stroke="rgb(204, 204, 204)" stroke-width="1px"></line><line x1="51.5625" y1="70.8" x2="46.5625" y2="70.8" style="visibility: inherit;" fill="rgb(0, 0, 0)" stroke="rgb(204, 204, 204)" stroke-width="1px"></line><line x1="51.5625" y1="53.10000000000001" x2="46.5625" y2="53.10000000000001" style="visibility: inherit;" fill="rgb(0, 0, 0)" stroke="rgb(204, 204, 204)" stroke-width="1px"></line><line x1="51.5625" y1="35.40000000000001" x2="46.5625" y2="35.40000000000001" style="visibility: inherit;" fill="rgb(0, 0, 0)" stroke="rgb(204, 204, 204)" stroke-width="1px"></line><line x1="51.5625" y1="17.699999999999996" x2="46.5625" y2="17.699999999999996" style="visibility: inherit;" fill="rgb(0, 0, 0)" stroke="rgb(204, 204, 204)" stroke-width="1px"></line><line x1="51.5625" y1="0" x2="46.5625" y2="0" style="visibility: inherit;" fill="rgb(0, 0, 0)" stroke="rgb(204, 204, 204)" stroke-width="1px"></line></g><g transform="translate(41.5625, 0)"><text x="0" y="177" dx="0em" dy="0.3em" style="text-anchor: end; visibility: hidden; font-family: Roboto, sans-serif; font-size: 12px; font-weight: 200;" fill="rgb(33, 33, 33)" stroke="none" stroke-width="1px">-0.1</text><text x="0" y="159.3" dx="0em" dy="0.3em" style="text-anchor: end; visibility: inherit; font-family: Roboto, sans-serif; font-size: 12px; font-weight: 200;" fill="rgb(33, 33, 33)" stroke="none" stroke-width="1px">0</text><text x="0" y="141.6" dx="0em" dy="0.3em" style="text-anchor: end; visibility: hidden; font-family: Roboto, sans-serif; font-size: 12px; font-weight: 200;" fill="rgb(33, 33, 33)" stroke="none" stroke-width="1px">0.1</text><text x="0" y="123.89999999999999" dx="0em" dy="0.3em" style="text-anchor: end; visibility: inherit; font-family: Roboto, sans-serif; font-size: 12px; font-weight: 200;" fill="rgb(33, 33, 33)" stroke="none" stroke-width="1px">0.2</text><text x="0" y="106.2" dx="0em" dy="0.3em" style="text-anchor: end; visibility: hidden; font-family: Roboto, sans-serif; font-size: 12px; font-weight: 200;" fill="rgb(33, 33, 33)" stroke="none" stroke-width="1px">0.3</text><text x="0" y="88.5" dx="0em" dy="0.3em" style="text-anchor: end; visibility: inherit; font-family: Roboto, sans-serif; font-size: 12px; font-weight: 200;" fill="rgb(33, 33, 33)" stroke="none" stroke-width="1px">0.4</text><text x="0" y="70.8" dx="0em" dy="0.3em" style="text-anchor: end; visibility: hidden; font-family: Roboto, sans-serif; font-size: 12px; font-weight: 200;" fill="rgb(33, 33, 33)" stroke="none" stroke-width="1px">0.5</text><text x="0" y="53.10000000000001" dx="0em" dy="0.3em" style="text-anchor: end; visibility: inherit; font-family: Roboto, sans-serif; font-size: 12px; font-weight: 200;" fill="rgb(33, 33, 33)" stroke="none" stroke-width="1px">0.6</text><text x="0" y="35.40000000000001" dx="0em" dy="0.3em" style="text-anchor: end; visibility: hidden; font-family: Roboto, sans-serif; font-size: 12px; font-weight: 200;" fill="rgb(33, 33, 33)" stroke="none" stroke-width="1px">0.7</text><text x="0" y="17.699999999999996" dx="0em" dy="0.3em" style="text-anchor: end; visibility: inherit; font-family: Roboto, sans-serif; font-size: 12px; font-weight: 200;" fill="rgb(33, 33, 33)" stroke="none" stroke-width="1px">0.8</text><text x="0" y="0" dx="0em" dy="0.3em" style="text-anchor: end; visibility: hidden; font-family: Roboto, sans-serif; font-size: 12px; font-weight: 200;" fill="rgb(33, 33, 33)" stroke="none" stroke-width="1px">0.9</text></g><line x1="51.5625" y1="0" x2="51.5625" y2="177" fill="rgb(0, 0, 0)" stroke="rgb(204, 204, 204)" stroke-width="1px"></line></g></g><g transform="translate(51, 0)" clip-path="url(#clip_0)"><clipPath id="clip_0"><rect width="278" height="176"></rect></clipPath><g><g><g><line x1="0" y1="0" x2="0" y2="177" fill="rgb(0, 0, 0)" stroke="rgb(66, 66, 66)" stroke-width="1px" opacity="0.25"></line><line x1="23.203125" y1="0" x2="23.203125" y2="177" fill="rgb(0, 0, 0)" stroke="rgb(66, 66, 66)" stroke-width="1px" opacity="0.25"></line><line x1="46.40625" y1="0" x2="46.40625" y2="177" fill="rgb(0, 0, 0)" stroke="rgb(66, 66, 66)" stroke-width="1px" opacity="0.25"></line><line x1="69.609375" y1="0" x2="69.609375" y2="177" fill="rgb(0, 0, 0)" stroke="rgb(66, 66, 66)" stroke-width="1px" opacity="0.25"></line><line x1="92.8125" y1="0" x2="92.8125" y2="177" fill="rgb(0, 0, 0)" stroke="rgb(66, 66, 66)" stroke-width="1px" opacity="0.25"></line><line x1="116.015625" y1="0" x2="116.015625" y2="177" fill="rgb(0, 0, 0)" stroke="rgb(66, 66, 66)" stroke-width="1px" opacity="0.25"></line><line x1="139.21875" y1="0" x2="139.21875" y2="177" fill="rgb(0, 0, 0)" stroke="rgb(66, 66, 66)" stroke-width="1px" opacity="0.25"></line><line x1="162.421875" y1="0" x2="162.421875" y2="177" fill="rgb(0, 0, 0)" stroke="rgb(66, 66, 66)" stroke-width="1px" opacity="0.25"></line><line x1="185.625" y1="0" x2="185.625" y2="177" fill="rgb(0, 0, 0)" stroke="rgb(66, 66, 66)" stroke-width="1px" opacity="0.25"></line><line x1="208.828125" y1="0" x2="208.828125" y2="177" fill="rgb(0, 0, 0)" stroke="rgb(66, 66, 66)" stroke-width="1px" opacity="0.25"></line><line x1="232.03125" y1="0" x2="232.03125" y2="177" fill="rgb(0, 0, 0)" stroke="rgb(66, 66, 66)" stroke-width="1px" opacity="0.25"></line><line x1="255.234375" y1="0" x2="255.234375" y2="177" fill="rgb(0, 0, 0)" stroke="rgb(66, 66, 66)" stroke-width="1px" opacity="0.25"></line><line x1="278.4375" y1="0" x2="278.4375" y2="177" fill="rgb(0, 0, 0)" stroke="rgb(66, 66, 66)" stroke-width="1px" opacity="0.25"></line></g><g><line x1="0" y1="177" x2="278.4375" y2="177" fill="rgb(0, 0, 0)" stroke="rgb(66, 66, 66)" stroke-width="1px" opacity="0.25"></line><line x1="0" y1="159.3" x2="278.4375" y2="159.3" fill="rgb(0, 0, 0)" stroke="rgb(66, 66, 66)" stroke-width="1px" opacity="0.25"></line><line x1="0" y1="141.6" x2="278.4375" y2="141.6" fill="rgb(0, 0, 0)" stroke="rgb(66, 66, 66)" stroke-width="1px" opacity="0.25"></line><line x1="0" y1="123.89999999999999" x2="278.4375" y2="123.89999999999999" fill="rgb(0, 0, 0)" stroke="rgb(66, 66, 66)" stroke-width="1px" opacity="0.25"></line><line x1="0" y1="106.2" x2="278.4375" y2="106.2" fill="rgb(0, 0, 0)" stroke="rgb(66, 66, 66)" stroke-width="1px" opacity="0.25"></line><line x1="0" y1="88.5" x2="278.4375" y2="88.5" fill="rgb(0, 0, 0)" stroke="rgb(66, 66, 66)" stroke-width="1px" opacity="0.25"></line><line x1="0" y1="70.8" x2="278.4375" y2="70.8" fill="rgb(0, 0, 0)" stroke="rgb(66, 66, 66)" stroke-width="1px" opacity="0.25"></line><line x1="0" y1="53.10000000000001" x2="278.4375" y2="53.10000000000001" fill="rgb(0, 0, 0)" stroke="rgb(66, 66, 66)" stroke-width="1px" opacity="0.25"></line><line x1="0" y1="35.40000000000001" x2="278.4375" y2="35.40000000000001" fill="rgb(0, 0, 0)" stroke="rgb(66, 66, 66)" stroke-width="1px" opacity="0.25"></line><line x1="0" y1="17.699999999999996" x2="278.4375" y2="17.699999999999996" fill="rgb(0, 0, 0)" stroke="rgb(66, 66, 66)" stroke-width="1px" opacity="0.25"></line><line x1="0" y1="0" x2="278.4375" y2="0" fill="rgb(0, 0, 0)" stroke="rgb(66, 66, 66)" stroke-width="1px" opacity="0.25"></line></g></g></g><g><g><line x1="0" y1="159.3" x2="278.4375" y2="159.3" fill="rgb(0, 0, 0)" stroke="rgb(153, 153, 153)" stroke-width="1.5px"></line></g></g><g><g><line x1="23.203125" y1="0" x2="23.203125" y2="177" fill="rgb(0, 0, 0)" stroke="rgb(153, 153, 153)" stroke-width="1.5px"></line></g></g><g><g><g><g><g><path stroke="rgb(0, 119, 187)" stroke-width="2px" d="M29.700000000000003,-2.7000734925270238L30.1640625,1.3238842964172401L30.628125,1.9607680320739784L31.092187499999998,0.5783880829811135L31.55625,5.727853882312779L32.0203125,8.106430220603947L32.484375,8.144463050365452L32.9484375,7.243670511245732L33.4125,11.606315660476689L33.8765625,13.774397957324986L34.340625,8.889220762252812L34.8046875,12.147447395324711L35.268750000000004,16.918842601776127L35.7328125,13.078718948364262L36.196875,12.651759552955632L36.660937499999996,14.979706335067753L37.125,20.347821342945103L37.589062500000004,23.78800420761109L38.053124999999994,21.802310693264012L38.5171875,22.931163060665135L38.98125,24.579213666915898L39.4453125,31.31691144704819L39.909375000000004,31.160201418399815L40.373437499999994,30.38211618661881L40.8375,33.26728348731995L41.3015625,30.29663990736008L41.765625,31.548115181922917L42.229687500000004,34.05472658872605L42.693749999999994,36.629892039299015L43.1578125,30.25193946361542L43.621875,28.890554058551793L44.0859375,43.401159989833836L44.550000000000004,43.27568857669831L45.014062499999994,43.32790063619614L45.478125,40.95986377000809L45.9421875,48.308418381214146L46.40625,51.362829136848454L46.8703125,43.15677927732468L47.334375,55.66528640985489L47.7984375,56.329821753501896L48.2625,56.29250632524491L48.7265625,58.089333343505864L49.190625,59.285737502574925L49.6546875,51.204547154903416L50.11875,55.19152711629868L50.5828125,52.88339327573777L51.04687499999999,67.81358413696289L51.5109375,73.71352048516273L51.975,77.64179484844207L52.4390625,82.31351344585418L52.903125,68.19803749322891L53.36718750000001,72.09066333174705L53.83125,68.02184157371521L54.2953125,68.57363938093185L54.759375,64.28382103443145L55.2234375,71.81903718709945L55.6875,75.1571485877037L56.1515625,86.30424921512603L56.615625,98.20467417240143L57.0796875,94.2201576411724L57.54375,93.6400593996048L58.0078125,86.84586097598076L58.471875,78.57405282855034L58.9359375,68.3293852686882L59.400000000000006,76.19451116323471L59.864062499999996,71.59449051618576L60.328125,87.94566385746002L60.7921875,107.77344928979873L61.25625,102.43425189256668L61.720312500000006,120.55994950532913L62.184374999999996,115.31746416091919L62.6484375,107.53172718286514L63.1125,93.08051787614822L63.5765625,85.63870634436607L64.040625,55.62700037956238L64.5046875,75.59899933934211L64.96875,89.23231818079948L65.4328125,92.81114943623543L65.896875,115.26790015697479L66.3609375,129.29056492745877L66.825,133.78856158554555L67.2890625,114.4567880809307L67.753125,125.29128100275993L68.2171875,115.51553027629852L68.68125,111.65520333051681L69.1453125,96.28806220293045L69.609375,86.57545335888862L70.0734375,108.00053851604461L70.53750000000001,121.75537251234054L71.0015625,117.73527603149414L71.465625,135.36668928265573L71.92968750000001,141.49640775024892L72.39375,146.0241317331791L72.8578125,144.5729564085603L73.32187499999999,133.86671614944936L73.7859375,122.8967530310154L74.25,122.63757591247558L74.7140625,113.83961706161499L75.17812500000001,127.37354941964149L75.6421875,128.9142614632845L76.10624999999999,136.93712865114213L76.5703125,139.4878615692258L77.034375,145.74509287923576L77.4984375,152.43101246953012L77.9625,150.72303114384414L78.4265625,152.5353673540056L78.890625,145.00265749096872L79.3546875,144.2072016477585L79.81875000000001,139.75242183655502L80.2828125,130.73423523008825L80.74687499999999,112.60881983041763L81.2109375,140.56450847089292L81.675,142.73358642607928L82.1390625,146.0007317841053L82.603125,156.11099964492024L83.0671875,147.2766765162349L83.53125,150.32353147789837L83.99531250000001,153.36459315866233L84.45937500000001,149.1001495935023L84.92343749999999,155.32388590201737L85.38749999999999,150.12826111838223L85.8515625,155.2103073310107L86.315625,151.4999281793833L86.7796875,148.70735776349903L87.24375,150.2408028200269L87.7078125,151.04519651010634L88.171875,150.0128148637712L88.63593750000001,153.37052490860225L89.10000000000001,145.57664990723134L89.56406249999999,139.46861964762212L90.02812499999999,157.68461044896395L90.4921875,158.24301932863892L90.95625,146.36833939254285L91.4203125,136.83613328933717L91.884375,148.24600331783296L92.3484375,147.24316305220128L92.8125,155.31179623603822L93.27656250000001,155.4995470672846L93.740625,157.8448156669736L94.20468749999999,157.2029158903286L94.66875,156.10554297566415L95.1328125,148.0839826717973L95.596875,152.8396583452821L96.0609375,154.36698372960092L96.525,152.8160467363894L96.9890625,136.23549942970277L97.453125,136.4526610851288L97.91718750000001,153.58322917968036L98.38125,154.49882867485286L98.84531249999999,133.34730427265168L99.309375,154.04344191513957L99.7734375,157.45425747446717L100.2375,151.66575013026596L100.70156250000001,149.99992339611055L101.165625,147.9080162152648L101.6296875,152.14037188813091L102.09374999999999,155.0690346222371L102.5578125,129.3936623811722L103.021875,151.17343664467336L103.48593749999999,153.14648397937418L103.95,151.06436787843705L104.4140625,156.83486617002637L104.878125,146.97055443674327L105.34218750000001,157.54271990451963L105.80625,145.68341481238605L106.2703125,148.59893386736513L106.73437500000001,151.68643872365357L107.1984375,149.66820366606117L107.6625,157.6550351103768L108.12656249999999,157.41276423744858L108.590625,150.2812120422721L109.0546875,152.59898728430272L109.51875,153.3616187117994L109.98281250000001,141.25453003048898L110.446875,151.26248938143254L110.91093749999999,147.75719178020955L111.375,147.99036177545787L111.8390625,154.8196604523808L112.303125,154.76533245407046L112.7671875,156.2032938759774L113.23125,153.9609199717641L113.6953125,158.82373800217175L114.159375,150.61103606522084L114.62343750000001,121.78698037862777L115.0875,119.14681096673011L115.55156249999999,157.1949483158067L116.015625,139.90274514555932L116.4796875,157.97772698868067L116.94375,128.08599505126477L117.4078125,124.88288964629173L117.871875,143.4688688993454L118.3359375,156.11300876475872L118.80000000000001,151.66040984094144L119.26406250000001,134.18249941170217L119.72812499999999,109.10639711022377L120.19218749999999,157.80367107521744L120.65625,157.86067515257747L121.1203125,145.7359328225255L121.584375,150.412874340266L122.0484375,155.39931856021286L122.5125,157.1728925054893L122.9765625,156.99642541743816L123.44062500000001,132.12740785181524L123.90468750000001,133.92206947803498L124.36874999999999,137.06129186153413L124.83281249999999,150.7352704882622L125.296875,146.4057906523347L125.7609375,150.7894112236798L126.225,125.27953355312347L126.6890625,137.0696527540684L127.153125,155.1180305734277L127.6171875,144.27521368414165L128.08125,147.5117969468236L128.5453125,148.432914762944L129.009375,143.860572758317L129.47343750000002,135.7827847927809L129.9375,154.61924431957306L130.4015625,153.71472993046046L130.865625,125.1921925574541L131.3296875,142.99169139862062L131.79375,139.8435291901231L132.2578125,150.0733073718846L132.721875,151.48325386941434L133.1859375,154.6953126166016L133.65,152.43438979536296L134.11406250000002,124.24480848312378L134.578125,91.84711478948593L135.04218749999998,151.0343161404133L135.50625,130.594761300087L135.9703125,122.47650872468948L136.434375,147.13730808645488L136.8984375,158.2298665006645L137.3625,151.28974404484035L137.8265625,157.1708420097828L138.290625,155.61137466430665L138.75468750000002,147.68197012245656L139.21875,140.51152889728547L139.6828125,137.24260849803687L140.146875,151.23081228062512L140.6109375,138.80304512679578L141.07500000000002,141.3000454634428L141.5390625,139.0495239749551L142.003125,140.51182034164668L142.46718750000002,156.19615414850415L142.93125,131.3655696541071L143.39531250000002,158.13397298119963L143.85937500000003,144.88621821552516L144.32343749999998,154.02977370209993L144.7875,150.77717056050898L145.25156249999998,151.8143445543945L145.715625,158.94714284730145L146.1796875,148.94001608267428L146.64374999999998,143.2966055005789L147.1078125,144.41639408022166L147.571875,155.32433328889311L148.0359375,153.1422514423728L148.5,143.5301790341735L148.9640625,151.48520100787283L149.428125,138.87486044615508L149.8921875,156.5062338050455L150.35625000000002,147.64571233391763L150.8203125,137.57146323770286L151.284375,155.66690206825734L151.74843750000002,156.5927436567843L152.21249999999998,153.53301700875164L152.6765625,150.52977122291924L153.140625,135.66272817850114L153.60468749999998,149.70300884842874L154.06875,128.93372625410558L154.5328125,154.5904404513538L154.996875,155.70578087791802L155.4609375,150.22173299565912L155.925,156.73640709947796L156.3890625,156.8845594117418L156.853125,155.00012022927405L157.3171875,151.94008763059975L157.78125,147.80865346938373L158.2453125,129.9260745227337L158.709375,155.12861521281303L159.1734375,152.74417866691948L159.63750000000002,110.70960484743118L160.1015625,153.89291584789754L160.565625,157.41572335381062L161.02968750000002,150.5604104653001L161.49374999999998,158.46154581075535L161.9578125,156.9061854735017L162.421875,158.76749266097323L162.88593749999998,158.97942364839838L163.35,158.5915326333605L163.8140625,147.14427373856307L164.278125,155.34933651164175L164.7421875,136.70639439225198L165.20625,145.22881172150375L165.6703125,153.4569678336382L166.134375,146.20651260316373L166.59843750000002,150.85634386092426L167.0625,153.61769148632885L167.5265625,152.68234828412534L167.99062500000002,156.15034628212453L168.4546875,149.68950811699034L168.91875000000002,150.73306355550886L169.38281249999997,120.34219177365303L169.84687499999998,157.647796311602L170.3109375,143.54011056125165L170.77499999999998,152.84563031718136L171.2390625,144.1415989726782L171.703125,147.49484965503217L172.16718749999998,153.97286457493902L172.63125,150.27131480276586L173.0953125,158.25066281966866L173.559375,149.02559852153064L174.0234375,141.45009974688293L174.4875,134.56783369481565L174.9515625,157.00663635525854L175.415625,150.24754758104683L175.87968750000002,144.9602780520916L176.34375,141.4780889555812L176.8078125,153.53509272560478L177.27187500000002,141.4284326389432L177.7359375,149.6307299874723L178.20000000000002,139.69200977236034L178.66406250000003,154.35271284654738L179.12812499999998,150.418211992085L179.5921875,157.5318087089807L180.05624999999998,148.698826751858L180.5203125,153.06571498811246L180.984375,141.2829517900944L181.44843749999998,151.18158587738873L181.9125,147.82123832702638L182.3765625,152.49865327700974L182.840625,148.23838488310577L183.3046875,158.06226794254036L183.76875,156.09732912406326L184.2328125,153.37790201157333L184.696875,155.44399757422508L185.16093750000002,158.61574481050485L185.625,154.94996410533787L186.0890625,140.1100939616561L186.55312500000002,154.10407783761622L187.01718749999998,157.2707721490413L187.48125,158.47616764688865L187.9453125,158.68583066803404L188.40937499999998,159.171894213371L188.8734375,159.09685330716894L189.3375,155.40211332701148L189.8015625,158.99390973541887L190.265625,159.1745929275756L190.7296875,152.97567384615542L191.19375,155.8059309192002L191.6578125,151.86183745712043L192.121875,157.25400288887323L192.5859375,157.16167486477644L193.05,149.87803239673377L193.5140625,111.83939089179039L193.978125,154.86999098137022L194.44218750000002,151.4045322418213L194.90625,157.79202879611404L195.3703125,146.71465441882611L195.83437500000002,156.96729317978026L196.29843749999998,155.9889770999551L196.7625,154.1672965373844L197.2265625,139.96822385787965L197.69062499999998,106.55074392557144L198.1546875,155.37169629447163L198.61875,150.51823279559613L199.0828125,139.98594393879176L199.546875,140.3094669610262L200.0109375,143.10705589056016L200.475,143.02082660347224L200.9390625,152.256445209682L201.40312500000002,157.4095840651542L201.8671875,158.3628539803438L202.33125,158.6735314027872L202.79531250000002,155.585358639434L203.259375,157.92454416230322L203.72343750000002,157.49242976233364L204.18749999999997,159.07673326106743L204.65156249999998,159.26665443740495L205.115625,159.26415855613305L205.57968749999998,159.23749528637273L206.04375,153.85021298490466L206.5078125,158.89183794166894L206.97187499999998,152.15975359752775L207.4359375,146.3430681332946L207.9,159.07035292913207L208.3640625,156.56902407500894L208.828125,158.7179988806136L209.2921875,155.38593025244774L209.75625,158.55892935600133L210.2203125,152.4592014692724L210.68437500000002,157.79491587560625L211.1484375,156.64416017867626L211.6125,153.29896608665587L212.07656250000002,153.96094865463675L212.540625,146.7772239625454L213.00468750000002,158.9271351836622L213.46875000000003,153.59780535399915L213.93281249999998,157.44201961364598L214.396875,148.71238287091256L214.86093749999998,158.8656585150864L215.325,144.36630389392377L215.7890625,148.27639990970493L216.25312499999998,158.48164632283152L216.7171875,155.5445534616709L217.18125,139.06900459080936L217.6453125,158.3625392929651L218.109375,127.91289028823375L218.5734375,158.70669222408907L219.0375,158.64695268259385L219.5015625,159.18113667152357L219.96562500000002,159.2886012831994L220.4296875,159.2115852820105L220.89375,159.0315378317144L221.35781250000002,159.1336204433581L221.82187499999998,159.0260474312352L222.2859375,159.2420377611823L222.75,158.08688543010504L223.21406249999998,159.20042634640123L223.678125,158.15636894730852L224.1421875,154.08031885810198L224.60625,157.67650918588043L225.0703125,158.9312940765638L225.534375,154.64353211894633L225.9984375,150.6634083531797L226.4625,149.6502864316106L226.9265625,142.08822838515044L227.390625,156.46983095370234L227.8546875,154.61277155131103L228.31875,151.289135440439L228.7828125,158.69427703223192L229.24687500000002,158.1055161922239L229.7109375,151.37738241925837L230.175,159.2170026050415L230.63906250000002,153.79506241455675L231.10312499999998,147.97227771878244L231.5671875,125.16396069824695L232.03125,159.1554008404026L232.49531249999998,150.00036451891066L232.959375,155.22352914623917L233.4234375,158.5302898373455L233.8875,159.01476605767385L234.3515625,154.78878877982498L234.815625,159.2666134221334L235.2796875,148.252997982502L235.74375,157.93622649852188L236.20781250000002,159.22066964437255L236.671875,158.32282480616124L237.1359375,156.12400485500694L237.60000000000002,147.59612063616515L238.0640625,159.2107880856609L238.52812500000002,158.66775345238858L238.99218749999997,157.7898451063782L239.45624999999998,114.2312549829483L239.9203125,145.0832622975111L240.38437499999998,158.99219888036606L240.8484375,158.4925405394286L241.3125,158.8326245413162L241.77656249999998,153.60201745033265L242.240625,156.56905358210207L242.7046875,159.2924284189874L243.16875,157.81271705981345L243.6328125,157.8910274013877L244.096875,151.7672611244023L244.5609375,153.67975396960975L245.025,154.54169737100602L245.48906250000002,159.29056512500102L245.953125,157.3446384586394L246.4171875,159.25816601220578L246.88125000000002,158.20785519825296L247.3453125,158.4408514478244L247.80937500000002,158.6075303407386L248.27343750000003,155.1218315485865L248.73749999999998,159.27333217899724L249.2015625,157.23942737393082L249.66562499999998,159.21760968978634L250.1296875,159.25681424425858L250.59375,157.97077056784184L251.05781249999998,159.28667502456375L251.521875,159.2814256583486L251.9859375,138.68463167846204L252.45,157.8613726079464L252.9140625,152.9417153030634L253.378125,158.38606221573428L253.8421875,159.09424887348433L254.30625,159.29053091856332L254.77031250000002,158.48388045486064" style="fill: none;" fill="none"></path></g></g></g></g></g></g><g transform="translate(51, 177)" clip-path="url(#clip_1)"><clipPath id="clip_1"><rect width="278" height="22"></rect></clipPath><g><g><line x1="0" y1="0" x2="0" y2="5" style="visibility: inherit;" fill="rgb(0, 0, 0)" stroke="rgb(204, 204, 204)" stroke-width="1px"></line><line x1="23.203125" y1="0" x2="23.203125" y2="5" style="visibility: inherit;" fill="rgb(0, 0, 0)" stroke="rgb(204, 204, 204)" stroke-width="1px"></line><line x1="46.40625" y1="0" x2="46.40625" y2="5" style="visibility: inherit;" fill="rgb(0, 0, 0)" stroke="rgb(204, 204, 204)" stroke-width="1px"></line><line x1="69.609375" y1="0" x2="69.609375" y2="5" style="visibility: inherit;" fill="rgb(0, 0, 0)" stroke="rgb(204, 204, 204)" stroke-width="1px"></line><line x1="92.8125" y1="0" x2="92.8125" y2="5" style="visibility: inherit;" fill="rgb(0, 0, 0)" stroke="rgb(204, 204, 204)" stroke-width="1px"></line><line x1="116.015625" y1="0" x2="116.015625" y2="5" style="visibility: inherit;" fill="rgb(0, 0, 0)" stroke="rgb(204, 204, 204)" stroke-width="1px"></line><line x1="139.21875" y1="0" x2="139.21875" y2="5" style="visibility: inherit;" fill="rgb(0, 0, 0)" stroke="rgb(204, 204, 204)" stroke-width="1px"></line><line x1="162.421875" y1="0" x2="162.421875" y2="5" style="visibility: inherit;" fill="rgb(0, 0, 0)" stroke="rgb(204, 204, 204)" stroke-width="1px"></line><line x1="185.625" y1="0" x2="185.625" y2="5" style="visibility: inherit;" fill="rgb(0, 0, 0)" stroke="rgb(204, 204, 204)" stroke-width="1px"></line><line x1="208.828125" y1="0" x2="208.828125" y2="5" style="visibility: inherit;" fill="rgb(0, 0, 0)" stroke="rgb(204, 204, 204)" stroke-width="1px"></line><line x1="232.03125" y1="0" x2="232.03125" y2="5" style="visibility: inherit;" fill="rgb(0, 0, 0)" stroke="rgb(204, 204, 204)" stroke-width="1px"></line><line x1="255.234375" y1="0" x2="255.234375" y2="5" style="visibility: inherit;" fill="rgb(0, 0, 0)" stroke="rgb(204, 204, 204)" stroke-width="1px"></line><line x1="278.4375" y1="0" x2="278.4375" y2="5" style="visibility: inherit;" fill="rgb(0, 0, 0)" stroke="rgb(204, 204, 204)" stroke-width="1px"></line></g><g transform="translate(0, 8)"><text x="0" y="0" dx="0em" dy="0.95em" style="text-anchor: middle; visibility: hidden; font-family: Roboto, sans-serif; font-size: 12px; font-weight: 200;" fill="rgb(33, 33, 33)" stroke="none" stroke-width="1px">-50</text><text x="23.203125" y="0" dx="0em" dy="0.95em" style="text-anchor: middle; visibility: inherit; font-family: Roboto, sans-serif; font-size: 12px; font-weight: 200;" fill="rgb(33, 33, 33)" stroke="none" stroke-width="1px">0</text><text x="46.40625" y="0" dx="0em" dy="0.95em" style="text-anchor: middle; visibility: hidden; font-family: Roboto, sans-serif; font-size: 12px; font-weight: 200;" fill="rgb(33, 33, 33)" stroke="none" stroke-width="1px">50</text><text x="69.609375" y="0" dx="0em" dy="0.95em" style="text-anchor: middle; visibility: inherit; font-family: Roboto, sans-serif; font-size: 12px; font-weight: 200;" fill="rgb(33, 33, 33)" stroke="none" stroke-width="1px">100</text><text x="92.8125" y="0" dx="0em" dy="0.95em" style="text-anchor: middle; visibility: hidden; font-family: Roboto, sans-serif; font-size: 12px; font-weight: 200;" fill="rgb(33, 33, 33)" stroke="none" stroke-width="1px">150</text><text x="116.015625" y="0" dx="0em" dy="0.95em" style="text-anchor: middle; visibility: inherit; font-family: Roboto, sans-serif; font-size: 12px; font-weight: 200;" fill="rgb(33, 33, 33)" stroke="none" stroke-width="1px">200</text><text x="139.21875" y="0" dx="0em" dy="0.95em" style="text-anchor: middle; visibility: hidden; font-family: Roboto, sans-serif; font-size: 12px; font-weight: 200;" fill="rgb(33, 33, 33)" stroke="none" stroke-width="1px">250</text><text x="162.421875" y="0" dx="0em" dy="0.95em" style="text-anchor: middle; visibility: inherit; font-family: Roboto, sans-serif; font-size: 12px; font-weight: 200;" fill="rgb(33, 33, 33)" stroke="none" stroke-width="1px">300</text><text x="185.625" y="0" dx="0em" dy="0.95em" style="text-anchor: middle; visibility: hidden; font-family: Roboto, sans-serif; font-size: 12px; font-weight: 200;" fill="rgb(33, 33, 33)" stroke="none" stroke-width="1px">350</text><text x="208.828125" y="0" dx="0em" dy="0.95em" style="text-anchor: middle; visibility: inherit; font-family: Roboto, sans-serif; font-size: 12px; font-weight: 200;" fill="rgb(33, 33, 33)" stroke="none" stroke-width="1px">400</text><text x="232.03125" y="0" dx="0em" dy="0.95em" style="text-anchor: middle; visibility: hidden; font-family: Roboto, sans-serif; font-size: 12px; font-weight: 200;" fill="rgb(33, 33, 33)" stroke="none" stroke-width="1px">450</text><text x="255.234375" y="0" dx="0em" dy="0.95em" style="text-anchor: middle; visibility: inherit; font-family: Roboto, sans-serif; font-size: 12px; font-weight: 200;" fill="rgb(33, 33, 33)" stroke="none" stroke-width="1px">500</text><text x="278.4375" y="0" dx="0em" dy="0.95em" style="text-anchor: middle; visibility: hidden; font-family: Roboto, sans-serif; font-size: 12px; font-weight: 200;" fill="rgb(33, 33, 33)" stroke="none" stroke-width="1px">550</text></g><line x1="0" y1="0" x2="278.4375" y2="0" fill="rgb(0, 0, 0)" stroke="rgb(204, 204, 204)" stroke-width="1px"></line></g></g></g></g></svg>